<?xml version="1.0" encoding="UTF-8" standalone="no"?>
<!-- Created with Inkscape (http://www.inkscape.org/) -->

<svg
   xmlns:dc="http://purl.org/dc/elements/1.1/"
   xmlns:cc="http://creativecommons.org/ns#"
   xmlns:rdf="http://www.w3.org/1999/02/22-rdf-syntax-ns#"
   xmlns:svg="http://www.w3.org/2000/svg"
   xmlns="http://www.w3.org/2000/svg"
   xmlns:sodipodi="http://sodipodi.sourceforge.net/DTD/sodipodi-0.dtd"
   xmlns:inkscape="http://www.inkscape.org/namespaces/inkscape"
   width="210mm"
   height="297mm"
   id="svg2"
   version="1.1"
   inkscape:version="0.48.4 r9939"
   sodipodi:docname="Documento nuevo 1">
  <defs
     id="defs4" />
  <sodipodi:namedview
     id="base"
     pagecolor="#ffffff"
     bordercolor="#666666"
     borderopacity="1.0"
     inkscape:pageopacity="0.0"
     inkscape:pageshadow="2"
     inkscape:zoom="0.98994949"
     inkscape:cx="389.55501"
     inkscape:cy="513.4062"
     inkscape:document-units="px"
     inkscape:current-layer="layer1"
     showgrid="false"
     inkscape:window-width="1280"
     inkscape:window-height="683"
     inkscape:window-x="0"
     inkscape:window-y="0"
     inkscape:window-maximized="1" />
  <metadata
     id="metadata7">
    <rdf:RDF>
      <cc:Work
         rdf:about="">
        <dc:format>image/svg+xml</dc:format>
        <dc:type
           rdf:resource="http://purl.org/dc/dcmitype/StillImage" />
        <dc:title></dc:title>
      </cc:Work>
    </rdf:RDF>
  </metadata>
  <g
     inkscape:label="Capa 1"
     inkscape:groupmode="layer"
     id="layer1">
    <path
       sodipodi:type="arc"
       style="fill:none;stroke:#000000;stroke-width:0.35433072;stroke-linecap:butt;stroke-linejoin:miter;stroke-miterlimit:4;stroke-opacity:1;stroke-dasharray:none"
       id="path2985"
       sodipodi:cx="634.28571"
       sodipodi:cy="492.36218"
       sodipodi:rx="237.14285"
       sodipodi:ry="214.28572"
       d="m 871.42856,492.36218 a 237.14285,214.28572 0 1 1 -474.28571,0 237.14285,214.28572 0 1 1 474.28571,0 z"
       transform="matrix(0.59719692,0,0,-0.66089789,-151.52405,744.77962)" />
    <path
       transform="matrix(0.23832093,0,0,-0.26374182,76.105861,549.23499)"
       d="m 871.42856,492.36218 a 237.14285,214.28572 0 1 1 -474.28571,0 237.14285,214.28572 0 1 1 474.28571,0 z"
       sodipodi:ry="214.28572"
       sodipodi:rx="237.14285"
       sodipodi:cy="492.36218"
       sodipodi:cx="634.28571"
       id="path3777"
       style="fill:none;stroke:#000000;stroke-width:1.41045928;stroke-linecap:butt;stroke-linejoin:miter;stroke-miterlimit:4;stroke-opacity:1;stroke-dasharray:none"
       sodipodi:type="arc" />
    <path
       transform="matrix(0.59719692,0,0,-0.66089789,-151.52405,744.77962)"
       d="m 871.42856,492.36218 a 237.14285,214.28572 0 1 1 -474.28571,0 237.14285,214.28572 0 1 1 474.28571,0 z"
       sodipodi:ry="214.28572"
       sodipodi:rx="237.14285"
       sodipodi:cy="492.36218"
       sodipodi:cx="634.28571"
       id="path3779"
       style="fill:none;stroke:#000000;stroke-width:0.35433072;stroke-linecap:butt;stroke-linejoin:miter;stroke-miterlimit:4;stroke-opacity:1;stroke-dasharray:none"
       sodipodi:type="arc" />
    <path
       sodipodi:type="arc"
       style="fill:none;stroke:#000000;stroke-width:1.41160958;stroke-linecap:butt;stroke-linejoin:miter;stroke-miterlimit:4;stroke-opacity:1;stroke-dasharray:none"
       id="path3781"
       sodipodi:cx="634.28571"
       sodipodi:cy="492.36218"
       sodipodi:rx="237.14285"
       sodipodi:ry="214.28572"
       d="m 871.42856,492.36218 a 237.14285,214.28572 0 1 1 -474.28571,0 237.14285,214.28572 0 1 1 474.28571,0 z"
       transform="matrix(0.23832093,0,0,-0.26374182,420.61952,517.57849)" />
    <path
       sodipodi:type="arc"
       style="fill:none;stroke:#000000;stroke-width:0.53039587;stroke-linecap:butt;stroke-linejoin:miter;stroke-miterlimit:4;stroke-opacity:1;stroke-dasharray:none"
       id="path3783"
       sodipodi:cx="634.28571"
       sodipodi:cy="492.36218"
       sodipodi:rx="237.14285"
       sodipodi:ry="214.28572"
       d="m 871.42856,492.36218 a 237.14285,214.28572 0 1 1 -474.28571,0 237.14285,214.28572 0 1 1 474.28571,0 z"
       transform="matrix(0.63427362,0,0,-0.70192944,169.47239,733.3255)" />
    <path
       transform="matrix(0.23832093,0,0,-0.26374182,333.42088,864.77709)"
       d="m 871.42856,492.36218 a 237.14285,214.28572 0 1 1 -474.28571,0 237.14285,214.28572 0 1 1 474.28571,0 z"
       sodipodi:ry="214.28572"
       sodipodi:rx="237.14285"
       sodipodi:cy="492.36218"
       sodipodi:cx="634.28571"
       id="path3785"
       style="fill:none;stroke:#000000;stroke-width:1.41045928;stroke-linecap:butt;stroke-linejoin:miter;stroke-miterlimit:4;stroke-opacity:1;stroke-dasharray:none"
       sodipodi:type="arc" />
    <path
       transform="matrix(0.63427362,0,0,-0.70192944,82.329529,1080.4683)"
       d="m 871.42856,492.36218 a 237.14285,214.28572 0 1 1 -474.28571,0 237.14285,214.28572 0 1 1 474.28571,0 z"
       sodipodi:ry="214.28572"
       sodipodi:rx="237.14285"
       sodipodi:cy="492.36218"
       sodipodi:cx="634.28571"
       id="path3787"
       style="fill:none;stroke:#000000;stroke-width:0.53082805;stroke-linecap:butt;stroke-linejoin:miter;stroke-miterlimit:4;stroke-opacity:1;stroke-dasharray:none"
       sodipodi:type="arc" />
    <path
       sodipodi:type="arc"
       style="fill:none;stroke:#000000;stroke-width:2.2582283;stroke-linecap:butt;stroke-linejoin:miter;stroke-miterlimit:4;stroke-opacity:1;stroke-dasharray:none"
       id="path3789"
       sodipodi:cx="634.28571"
       sodipodi:cy="492.36218"
       sodipodi:rx="237.14285"
       sodipodi:ry="214.28572"
       d="m 871.42856,492.36218 a 237.14285,214.28572 0 1 1 -474.28571,0 237.14285,214.28572 0 1 1 474.28571,0 z"
       transform="matrix(0.14867189,0,0,-0.16453021,41.552982,728.9458)" />
    <path
       transform="matrix(0.03661666,0,0,-0.04052243,112.62744,667.88963)"
       d="m 871.42856,492.36218 a 237.14285,214.28572 0 1 1 -474.28571,0 237.14285,214.28572 0 1 1 474.28571,0 z"
       sodipodi:ry="214.28572"
       sodipodi:rx="237.14285"
       sodipodi:cy="492.36218"
       sodipodi:cx="634.28571"
       id="path3813"
       style="fill:none;stroke:#000000;stroke-width:9.08042622;stroke-linecap:butt;stroke-linejoin:miter;stroke-miterlimit:4;stroke-opacity:1;stroke-dasharray:none"
       sodipodi:type="arc" />
    <path
       transform="matrix(0.18583987,0,0,-0.20566277,49.693277,846.05394)"
       d="m 871.42856,492.36218 a 237.14285,214.28572 0 1 1 -474.28571,0 237.14285,214.28572 0 1 1 474.28571,0 z"
       sodipodi:ry="214.28572"
       sodipodi:rx="237.14285"
       sodipodi:cy="492.36218"
       sodipodi:cx="634.28571"
       id="path3815"
       style="fill:none;stroke:#000000;stroke-width:2.2582283;stroke-linecap:butt;stroke-linejoin:miter;stroke-miterlimit:4;stroke-opacity:1;stroke-dasharray:none"
       sodipodi:type="arc" />
    <path
       sodipodi:type="arc"
       style="fill:none;stroke:#000000;stroke-width:9.19859886;stroke-linecap:butt;stroke-linejoin:miter;stroke-miterlimit:4;stroke-opacity:1;stroke-dasharray:none"
       id="path3817"
       sodipodi:cx="634.28571"
       sodipodi:cy="492.36218"
       sodipodi:rx="237.14285"
       sodipodi:ry="214.28572"
       d="m 871.42856,492.36218 a 237.14285,214.28572 0 1 1 -474.28571,0 237.14285,214.28572 0 1 1 474.28571,0 z"
       transform="matrix(0.03660726,0,0,-0.04051202,144.34939,764.73996)" />
    <path
       sodipodi:type="arc"
       style="fill:none;stroke:#000000;stroke-width:1.8124311;stroke-linecap:butt;stroke-linejoin:miter;stroke-miterlimit:4;stroke-opacity:1;stroke-dasharray:none"
       id="path3819"
       sodipodi:cx="634.28571"
       sodipodi:cy="492.36218"
       sodipodi:rx="237.14285"
       sodipodi:ry="214.28572"
       d="m 871.42856,492.36218 a 237.14285,214.28572 0 1 1 -474.28571,0 237.14285,214.28572 0 1 1 474.28571,0 z"
       transform="matrix(0.1860229,0,0,-0.20586532,128.90648,756.11009)" />
    <path
       transform="matrix(0.03660726,0,0,-0.04051202,223.67868,674.69638)"
       d="m 871.42856,492.36218 a 237.14285,214.28572 0 1 1 -474.28571,0 237.14285,214.28572 0 1 1 474.28571,0 z"
       sodipodi:ry="214.28572"
       sodipodi:rx="237.14285"
       sodipodi:cy="492.36218"
       sodipodi:cx="634.28571"
       id="path3821"
       style="fill:none;stroke:#000000;stroke-width:9.19859886;stroke-linecap:butt;stroke-linejoin:miter;stroke-miterlimit:4;stroke-opacity:1;stroke-dasharray:none"
       sodipodi:type="arc" />
  </g>
</svg>
